# xmcd
#
# Track frame offsets:
#	150
#	12770
#	24017
#	35062
#	43985
#	60197
#	75285
#	88332
#	101085
#	113412
#	126470
#	141165
#
# Disc length: 2023 seconds
#
# Revision: 1
# Processed by: cddbd v1.5.1PL0 Copyright (c) Steve Scherf et al.
# Submitted via: audiograbber 1.82.02
#
DISCID=9107e50c
DTITLE=Lee Conway - Bound To Explode
DYEAR=1900
DGENRE=Country
TTITLE0=I'll Bet You A Kangaroo
TTITLE1=Bound To Explode
TTITLE2=Thing In The Swamp
TTITLE3=I've Just Seen A Face
TTITLE4=Shiralee
TTITLE5=Too Hot To Handle
TTITLE6=I Still Miss Someone
TTITLE7=Woogie Boogie
TTITLE8=Once They Were Lovers
TTITLE9=Movin' On
TTITLE10=Dream Lover
TTITLE11=Living Game
EXTD=
EXTT0=
EXTT1=
EXTT2=
EXTT3=
EXTT4=
EXTT5=
EXTT6=
EXTT7=
EXTT8=
EXTT9=
EXTT10=
EXTT11=
PLAYORDER=
